<?xml version="1.0" encoding="UTF-8"?>
<svg id="linagora" width="120" height="24" version="1.1" viewBox="0 0 120 24" xmlns="http://www.w3.org/2000/svg">
 <path id="blanc" d="m5 0h110c2.77 0 5 2.23 5 5v14c0 2.77-2.23 5-5 5h-110c-2.77 0-5-2.23-5-5v-14c0-2.77 2.23-5 5-5z" fill="#c71f45" stroke-width=".16667"/>
 <path d="m5.1667 1.3333c-1.939 0-3.5 1.561-3.5 3.5v14.333c0 1.939 1.561 3.5 3.5 3.5h32.152v-21.333z" fill="#fff" stroke-width=".18898"/>
 <g stroke-width=".16667">
  <path id="rouge" d="m37.318 1.3334v21.333h77.392c2.0313 0 3.6667-1.6353 3.6667-3.6667v-14c0-2.0313-1.6353-3.6667-3.6667-3.6667z" fill="#c71f45"/>
  <path id="lin" d="m4.8918 4.5272v14.224h9.3313v-3.4205h-5.566v-10.804zm10.81 0v14.224h3.7653v-14.224zm5.2917 0v14.224h3.5735v-9.4873l6.0315 9.4873h4.3128v-14.224h-3.5735v9.2702l-5.7917-9.1888-0.04785-0.08138z" fill="#c71f45"/>
  <path id="agora" d="m76.868 4.0792c-1.7888 0.033272-3.5177 0.66623-4.9013 1.8015-1.4758 1.2109-2.459 2.9112-2.7673 4.7855-0.30842 1.8743 0.07902 3.796 1.0905 5.4088 1.0113 1.6128 2.5782 2.8078 4.4102 3.3633l1.0817-3.2712c-0.90512-0.28462-1.6958-0.8465-2.2582-1.6052-0.56225-0.75848-0.86695-1.6745-0.87045-2.6158 0.04577-1.1764 0.54942-2.2895 1.4053-3.1058 0.85585-0.81623 1.9973-1.2721 3.1848-1.2721 1.1877 0 2.329 0.4559 3.1848 1.2721 0.85585 0.81623 1.3595 1.9293 1.4053 3.1058-0.0053 0.95505-0.321 1.8828-0.90072 2.6458-0.57955 0.76282-1.3921 1.3202-2.3167 1.5889l1.068 3.2708c1.6293-0.48568 3.0582-1.4768 4.0762-2.8282 1.0181-1.3512 1.5713-2.9908 1.5784-4.6773-0.02697-2.1107-0.89793-4.1247-2.4215-5.5993-1.5236-1.4747-3.5755-2.2897-5.7048-2.266-0.11502-0.00281-0.2298-0.00373-0.3444-0.00167zm-15.182 0.11459c-4.7307 0-7.9413 3.013-7.9413 7.4648 0 4.4518 3.1628 7.4648 7.8867 7.4648 2.1107 0.05459 4.2022-0.41187 6.086-1.3571l0.04785-0.04753v-7.5058h-5.9765v3.0472h2.9642v2.2053c-0.92227 0.45588-1.9403 0.68853-2.971 0.67872-0.59187 0.02613-1.1829-0.07032-1.735-0.2832-0.55227-0.21288-1.0539-0.53735-1.4726-0.95312-0.4186-0.41562-0.7451-0.91317-0.95898-1.4609-0.21388-0.54777-0.31033-1.134-0.2832-1.7207-0.03279-0.58122 0.05695-1.1626 0.26367-1.7073 0.20672-0.54475 0.52607-1.0411 0.93717-1.4567 0.41095-0.41578 0.90477-0.7418 1.4502-0.95768 0.54527-0.21588 1.1299-0.31653 1.7168-0.2959 0.63132-0.037283 1.2631 0.05948 1.8535 0.28418 0.59037 0.22487 1.1254 0.57232 1.5693 1.0189l0.08236 0.08138 2.4095-2.5655-0.08887-0.088215c-1.3693-1.2149-3.245-1.8457-5.8395-1.8457zm-16.629 0.41602-6.1205 14.143h4.039l1.068-2.789h5.429l1.1159 2.789h4.1075l-6.0175-14.041-0.10286-0.10156zm41.658 0.020507v14.136h3.4228v-5.585h1.2529l3.0257 5.585h4.1077l-3.7107-5.8975c0.91028-0.16578 1.728-0.65622 2.2982-1.3789 0.57007-0.7227 0.85332-1.6275 0.79622-2.5433h-0.0068c0-2.8842-1.855-4.3163-5.5727-4.3163zm18.457 0-6.1205 14.136h4.039l1.068-2.7822h5.429l1.1159 2.7822h4.1077l-6.0658-14.054-0.0547-0.081705zm-14.986 2.6468h1.821c0.87633 0 2.3757 0.23768 2.3757 1.6697 0 1.432-1.4444 1.5879-2.5602 1.5879h-1.6156zm-43.432 1.3027 1.6364 4.3705h-3.2998zm60.135 3.334e-4 1.6292 4.3705h-3.2998z" fill="#fff"/>
 </g>
</svg>
