<?xml version="1.0" encoding="UTF-8" standalone="no"?>
<svg
   width="24"
   height="24"
   fill="none"
   version="1.1"
   viewBox="0 0 24 24"
   id="svg10"
   sodipodi:docname="Open-RAG_ico.svg"
   inkscape:version="1.4.3 (0d15f75042, 2025-12-25)"
   xmlns:inkscape="http://www.inkscape.org/namespaces/inkscape"
   xmlns:sodipodi="http://sodipodi.sourceforge.net/DTD/sodipodi-0.dtd"
   xmlns="http://www.w3.org/2000/svg"
   xmlns:svg="http://www.w3.org/2000/svg">
  <sodipodi:namedview
     id="namedview10"
     pagecolor="#ffffff"
     bordercolor="#000000"
     borderopacity="0.25"
     inkscape:showpageshadow="2"
     inkscape:pageopacity="0.0"
     inkscape:pagecheckerboard="0"
     inkscape:deskcolor="#d1d1d1"
     inkscape:zoom="13.346641"
     inkscape:cx="13.711316"
     inkscape:cy="8.2417744"
     inkscape:window-width="1920"
     inkscape:window-height="1131"
     inkscape:window-x="0"
     inkscape:window-y="0"
     inkscape:window-maximized="1"
     inkscape:current-layer="svg10" />
  <defs
     id="defs3">
    <clipPath
       id="clipPath13">
      <rect
         x="985.76"
         y="-920.01"
         width="700"
         height="700"
         rx="350"
         fill="#fff"
         stroke-width="1.9074"
         id="rect1" />
    </clipPath>
    <clipPath
       id="clipPath14">
      <rect
         x="985.76"
         y="-920.01"
         width="700"
         height="700"
         rx="350"
         fill="#fff"
         stroke-width="1.9074"
         id="rect2" />
    </clipPath>
    <clipPath
       id="clipPath15">
      <rect
         x="985.76"
         y="-920.01"
         width="700"
         height="700"
         rx="350"
         fill="#fff"
         stroke-width="1.9074"
         id="rect3" />
    </clipPath>
  </defs>
  <g
     transform="matrix(0.09040722,0,0,0.09040722,-106.10516,124.32883)"
     id="g10">
    <path
       transform="matrix(13.641,0,0,13.641,1142.7,-1394)"
       d="m 5.3594,16.332 c -0.086475,0 -0.20247,0.04412 -0.26758,0.11328 -0.065107,0.06916 -0.089354,0.13999 -0.10547,0.20117 -0.032229,0.12237 -0.033203,0.23965 -0.033203,0.40625 0,0.20907 -0.021959,0.3429 0.070312,0.51953 0.046136,0.08832 0.12899,0.15951 0.19922,0.19922 0.070226,0.03971 0.13172,0.06082 0.20117,0.08594 0.14569,0.05268 0.3935,0.22333 0.60742,0.43359 0.21392,0.21026 0.40306,0.46363 0.48633,0.65039 0.30485,0.68376 0.19038,1.5353 -0.22656,1.9941 -0.0533,0.05866 -0.21882,0.18096 -0.375,0.26758 -0.13178,0.07308 -0.2942,0.1188 -0.31055,0.13086 v 0.002 c -0.12302,0.0029 -0.2498,0.07362 -0.31445,0.16016 -0.066021,0.08837 -0.087063,0.18001 -0.091797,0.26562 -0.00947,0.17122 0.045682,0.35013 0.20508,0.48242 0.067416,0.05595 0.065676,0.04295 0.085938,0.05273 0.020262,0.0098 0.041902,0.01975 0.068359,0.03125 0.052914,0.02301 0.12365,0.05255 0.21094,0.08789 0.17457,0.07067 0.41771,0.16517 0.71289,0.2793 0.59037,0.22826 1.3898,0.53118 2.2559,0.85352 0.86531,0.32206 1.6567,0.6148 2.2363,0.82812 0.28979,0.10666 0.52678,0.19355 0.69336,0.25391 0.08329,0.03018 0.14837,0.05378 0.19531,0.07031 0.02347,0.0083 0.04138,0.01443 0.05664,0.01953 0.0076,0.0026 0.01546,0.0054 0.02344,0.0078 0.004,0.0012 0.0067,0.0021 0.01367,0.0039 0.007,0.0019 0.05034,0.0097 0.05078,0.0098 2.19e-4,2e-5 0.05097,-6.13e-4 0.0625,-0.002 0.01153,-0.0013 0.01772,-0.0028 0.02344,-0.0039 0.01144,-0.0022 0.01784,-0.0024 0.02344,-0.0039 0.01119,-0.003 0.01869,-0.0051 0.02734,-0.0078 0.01731,-0.0054 0.0363,-0.01314 0.06055,-0.02148 0.04849,-0.01668 0.1167,-0.03983 0.20117,-0.07031 0.16893,-0.06097 0.40812,-0.14917 0.70117,-0.25781 0.5861,-0.21729 1.3855,-0.51668 2.2598,-0.84766 1.443,-0.54627 2.2363,-0.85037 2.6875,-1.0469 0.22558,-0.09825 0.36595,-0.16782 0.47656,-0.24609 0.11061,-0.07827 0.2097,-0.21981 0.22461,-0.33984 0.01396,-0.11238 -0.0038,-0.28817 -0.10742,-0.40625 -0.1036,-0.11808 -0.21581,-0.15616 -0.3457,-0.20312 -0.31773,-0.11489 -0.61726,-0.37897 -0.79297,-0.71094 -0.08491,-0.16046 -0.15128,-0.47706 -0.15234,-0.79883 -0.0011,-0.32177 0.06012,-0.65365 0.1543,-0.85938 0.17738,-0.38746 0.6752,-0.8722 1.043,-1.0234 l 0.36133,-0.14844 a 0.29381,0.29381 0 0 0 0.18164,-0.27148 v -0.42383 c 8.3e-5,-0.11566 2.24e-4,-0.20762 -0.0078,-0.29102 -0.008,-0.0834 -0.0028,-0.1602 -0.0918,-0.27734 -0.04448,-0.05857 -0.13606,-0.12052 -0.22461,-0.13281 -0.08855,-0.01229 -0.15506,0.01084 -0.20117,0.03125 -0.08589,0.03801 -0.13253,0.07881 -0.18555,0.125 v -0.002 h -0.002 c -0.01556,0.0063 -0.09874,0.05892 -0.18555,0.0957 -0.11574,0.04904 -0.2652,0.10483 -0.41211,0.15234 -0.33087,0.10702 -1.3033,0.45805 -2.1934,0.79102 -1.32,0.49381 -2.1096,0.78159 -2.625,0.94141 -0.5154,0.15982 -0.73784,0.19141 -0.98242,0.19141 -0.18284,0 -0.35464,-0.02453 -0.83203,-0.17383 -0.47739,-0.1493 -1.2395,-0.42061 -2.541,-0.89453 -0.81855,-0.29807 -1.5644,-0.57965 -2.1074,-0.79102 C 6.234439,16.70871 6.013599,16.61997 5.863349,16.55658 5.799855,16.52979 5.747919,16.50641 5.712959,16.49017 5.678079,16.44854 5.637355,16.41974 5.597729,16.39642 5.526901,16.35474 5.449639,16.33197 5.359449,16.33197 Z m -1.1172,2.043 a 0.25842,0.25842 0 0 0 -0.066406,0.0098 0.25842,0.25842 0 0 0 -0.17969,0.17773 l -0.044922,0.15625 a 0.25842,0.25842 0 0 0 0,0.0039 c -0.08166,0.29409 -0.066771,0.6517 0.019531,0.96094 0.031231,0.11191 0.06873,0.2818 0.078125,0.33984 0.00607,0.0375 0.010872,0.07183 0.027344,0.12305 0.016472,0.05122 0.060366,0.13022 0.12695,0.17773 0.13317,0.09502 0.21163,0.0728 0.31445,0.08008 0.37675,0.02668 0.58816,0.05359 0.80469,-0.02539 0.10826,-0.03949 0.21489,-0.13476 0.26367,-0.23633 C 5.634727,20.04103 5.643978,19.95016 5.652348,19.85549 5.668418,19.67374 5.632942,19.49553 5.548828,19.33205 5.501068,19.23923 5.431548,19.14243 5.337888,19.06447 5.244227,18.98651 5.136618,18.92417 4.968748,18.83009 4.868888,18.77413 4.765178,18.71062 4.681638,18.65626 4.5981,18.6019 4.522858,18.54273 4.529298,18.54884 l -0.10742,-0.10156 a 0.25842,0.25842 0 0 0 -0.17969,-0.07227 z m 15.52,0.0332 c -0.12153,1.18e-4 -0.16793,0.04773 -0.20312,0.07422 -0.03519,0.02649 -0.06231,0.05319 -0.09961,0.08594 -0.0343,0.03011 -0.24398,0.17128 -0.39453,0.25391 -0.3717,0.204 -0.63641,0.43146 -0.69726,0.75586 -0.05372,0.2864 0.05901,0.5497 0.26562,0.74219 0.21249,0.19797 0.51752,0.18523 0.7832,0.07422 0.04486,-0.01874 0.17812,-0.04925 0.19922,-0.05078 0.03551,-0.0026 0.06977,-0.0045 0.11914,-0.01758 0.04937,-0.01313 0.11911,-0.04614 0.16797,-0.09961 0.09771,-0.10694 0.09477,-0.19175 0.10742,-0.27148 0.01021,-0.06432 0.0556,-0.28029 0.0957,-0.44141 0.08534,-0.34287 0.07538,-0.65303 -0.06641,-0.91797 a 0.25842,0.25842 0 0 0 0,-0.002 c -0.01451,-0.027 -0.02642,-0.05433 -0.07422,-0.10156 A 0.25842,0.25842 0 0 0 19.94774,18.47457 C 19.9071,18.44146 19.90902,18.40816 19.76219,18.40816 Z"
       fill="#c71f45"
       stroke-width="0.10768"
       id="path3" />
    <g
       transform="matrix(0.51589,0,0,0.51589,336.15,-656.11)"
       id="g9">
      <path
         d="m 1884.3,-1393.9 v 0.01 c -42.836,0.041 -84.376,11.857 -119.68,34.131 a 14.491,14.491 0 0 0 -1.1133,-1.2891 l 1.2715,0.6309 c -9.8611,-12.989 -24.34,-19.635 -38.039,-19.57 -30.137,0.1418 -56.825,28.204 -51.107,61.516 a 14.491,14.491 0 0 0 0.01,0.023 c 0.7336,4.231 1.629,5.7918 2.8984,8.7344 1.2694,2.9425 2.8605,6.1942 4.7871,9.4394 1.9266,3.2453 3.9228,6.4272 7.5469,9.6973 1.098,0.9908 2.5399,2.0084 4.2617,2.9531 -3.2108,5.5388 -6.2769,11.213 -9.041,17.152 -1.7279,3.7163 -5.5964,9.4926 -7.1992,18.295 -0.666,3.6574 -0.6906,8.372 0.9824,13.107 a 14.491,14.491 0 0 0 -13.234,13.553 c 0.01,-0.4056 0,-0.6146 -0.035,-0.6582 -8e-4,0 -0.01,-1e-4 -0.01,0 -0.1645,0.089 -0.7181,2.3223 -2.2422,4.8789 -2.0215,3.3912 -5.1562,7.718 -8.4766,12.049 -3.3205,4.3309 -6.8114,8.6738 -9.8125,12.772 -2.9988,4.0943 -6.0136,5.9201 -7.5234,14.67 -0.648,3.7406 -0.3965,5.7295 -0.2734,5.8281 0.017,-0.019 0.03,-0.088 0.033,-0.2071 a 14.491,14.491 0 0 0 6.211,11.295 l -7.0938,12.248 a 14.491,14.491 0 0 0 -1.4941,10.875 c 1.052,4.0843 4.9962,8.9757 9.2773,11.678 -1.5741,3.4443 -3.1143,6.9743 -4.2382,10.965 -1.1241,3.9912 -4.2963,9.344 2.08,18.215 a 14.491,14.491 0 0 0 0.022,0.029 c 3.8588,5.3394 10.844,7.3071 14.646,7.3633 1.8033,0.027 3.2141,-0.1222 4.4277,-0.3125 10.492,20.065 26.947,34.162 44.635,44.783 -1.5314,1.0129 -3.047,2.0439 -4.5234,3.2676 -17.792,14.742 -38.395,39.338 -51.6,67.174 -6.6026,13.918 -11.341,28.679 -12.043,43.752 -0.6431,13.801 2.5332,28.125 10.971,40.312 0.01,-0.0209 0.3599,0.48304 1.6914,3.0859 1.5167,2.9649 6.4989,7.2701 10.602,8.1699 1.2958,0.28419 2.1878,0.22237 3.1855,0.25 -25.876,52.084 -38.991,98.867 -41.68,139.99 a 436.51,436.51 0 0 0 267.17,91.312 436.51,436.51 0 0 0 245.78,-75.771 c 5.7301,-45.697 -3.3546,-98.361 -32.244,-156.31 a 14.491,14.491 0 0 0 11.1,-5.0801 c 22.084,-29.481 16.764,-65.197 1.793,-93.807 -14.016,-26.784 -35.875,-49.568 -55.619,-65.525 18.456,-11.078 35.034,-25.44 46.123,-45.705 2.9291,0.4449 8.0535,2.0926 15.121,-2.9941 3.5384,-2.5467 6.0437,-7.0376 6.7734,-10.607 0.7298,-3.5699 0.3982,-6.3601 -0.096,-8.9297 a 14.491,14.491 0 0 0 -0.057,-0.123 c -1.1353,-5.8344 -3.3299,-10.092 -5.291,-13.846 a 14.491,14.491 0 0 0 8.6601,-19.795 l -8.1289,-15.109 c 4.4136,-3.5702 7.5537,-13.099 5.9395,-18.779 a 14.491,14.491 0 0 0 -0.012,-0.041 c -1.8647,-6.4881 -3.1197,-6.336 -4.6015,-8.3105 -1.4819,-1.9745 -3.1366,-3.9991 -4.8028,-6.0176 -3.3022,-4.0004 -7.1079,-8.8147 -7.1113,-8.8008 a 14.491,14.491 0 0 0 -0.012,-0.02 c -4.4922,-6.9058 -8.5016,-16.397 -15.404,-26.228 a 14.491,14.491 0 0 0 -9.7676,-5.5195 14.491,14.491 0 0 0 1.9492,-13.02 c -4.7869,-12.447 -10.644,-24.436 -17.447,-35.822 3.9125,-1.5436 6.1141,-3.7315 7.9121,-5.5996 4.3955,-4.5672 6.6018,-8.7255 8.2285,-12.16 16.517,-34.8 -11.079,-74.896 -48.266,-74.084 -2.4849,0.054 -4.9918,0.2934 -7.502,0.7188 a 14.491,14.491 0 0 0 -0.039,0.021 c -8.1837,1.3912 -13.369,4.2775 -20.016,9.289 -2.9397,2.2165 -6.2529,4.6796 -8.5898,10.158 -18.952,-12.404 -40.006,-21.847 -62.793,-27.379 a 14.491,14.491 0 0 0 -0.035,-0.022 c -19.253,-4.6721 -38.662,-6.9578 -57.803,-6.9394 z m 156.16,56.676 c 2.8092,-0.1455 4.5476,0.9848 6.3769,2.9082 2.4403,2.5657 4.1502,7.0952 3.2266,12.275 a 14.491,14.491 0 0 0 0,0.016 c -0.014,0.079 -0.2507,0.353 -0.7148,1.2871 -4.4724,-5.1312 -9.1801,-10.046 -14.102,-14.738 1.3537,-0.6885 1.9804,-1.0922 2.0195,-1.1543 1.2102,-0.3478 2.2612,-0.5389 3.1934,-0.5879 z m -310.93,0.4004 c -0.393,-0.098 -0.4997,-0.1123 2.5117,0.3496 0.1324,0.019 0.6227,0.33 1.3789,0.705 -4.8704,4.5412 -9.5359,9.3387 -13.994,14.383 -0.3567,-1.2128 -1.14,-3.8642 -1.1367,-3.9336 0.247,-4.8749 1.8611,-7.3931 3.9023,-9.0567 1.5311,-1.2479 3.5677,-2.1872 6.541,-2.291 0.8616,0.058 1.1838,0.05 1.2403,0.016 -3e-4,-7e-4 0,-0.01 0,-0.01 -0.044,-0.042 -0.2715,-0.1016 -0.4434,-0.1445 z m -20.34,341.54 a 14.491,14.491 0 0 0 0.084,0.14844 l -0.059,-0.0586 z m 2.254,1.9844 c 0.2804,0.40546 0.3715,0.58508 0.3613,0.63086 v 0.01 c -0.095,0.006 -0.6028,-0.52576 -0.6309,-0.57813 v -0.002 c 0.01,0.003 0.019,0.0134 0.039,0.0312 0.093,-0.0281 0.1485,-0.0634 0.2403,-0.0918 z m -0.9375,0.35743 v 0.002 a 14.491,14.491 0 0 0 7.6719,7.3106 l 143.46,52.041 c 11.048,5.1425 22.44,5.5727 31.869,3.8184 9.6458,-1.7946 17.61,-5.2214 25.045,-7.7051 45.743,-15.292 89.144,-34.544 133.34,-47.939 a 14.491,14.491 0 0 0 6.4375,-4.0312 c 0.868,-0.93909 1.5824,-2.0754 2.164,-3.3027 1.5239,0.34685 2.9665,0.5833 4.2637,0.65429 l -0.4453,21.193 a 14.491,14.491 0 0 0 1.0078,3.834 c -5.2139,1.4122 -9.4387,3.2586 -11.633,4.3008 a 14.491,14.491 0 0 0 -0.012,0.006 c -25.667,12.223 -37.855,38.517 -34.982,62.246 1.4362,11.864 6.8507,23.537 16.664,31.756 5.9196,4.9577 13.414,8.1917 21.719,9.8691 l -1.4219,12.426 -166.82,63.148 -4.3379,0.67969 -172.32,-63.857 c -0.2737,-2.0542 -0.5555,-4.227 -0.7578,-7.0547 -0.1147,-1.604 -0.212,-3.2506 -0.3125,-4.9082 9.6247,-1.7247 18.057,-5.6979 24.523,-11.6 10.075,-9.1947 14.915,-22.078 15.356,-34.803 0.8803,-25.45 -15.242,-52.735 -45.068,-61.754 a 14.491,14.491 0 0 0 -0.02,-0.006 c -0.5551,-0.16708 -1.4501,-0.41893 -2.1856,-0.64453 1.2437,-5.1932 0.8738,-8.5324 0.6778,-12.492 -0.1967,-3.9748 -0.5745,-8.0856 -0.8731,-11.869 -0.014,-0.17782 -0.01,-0.26103 -0.02,-0.4375 2.0144,0.0398 4.2501,-0.10783 7.0058,-0.87891 0,-3e-4 0.01,-0.002 0.01,-0.002 z m 379.13,53.553 c 2.7683,5.1692 4.4979,10.62 4.4688,15.543 a 14.491,14.491 0 0 0 0,0.0156 c -0.02,4.1222 -3.8589,12.592 -4.9414,24.994 a 14.491,14.491 0 0 0 0.012,0.0508 14.491,14.491 0 0 0 -8.4063,0.98437 c -13.128,5.8514 -17.53,1.6637 -20.525,-3.9668 -2.9723,-5.587 -3.2024,-13.971 6.2637,-21.561 -0.02,0.0246 -0.027,0.044 -0.023,0.0547 0.1353,0.21361 6.2757,-3.129 11.728,-6.2598 3.0658,-1.7603 6.329,-3.6849 9.6797,-7.3809 0.5879,-0.64848 1.1676,-1.5802 1.7441,-2.4746 z m -410.62,0.74219 c 1.7125,2.3082 3.718,3.8625 5.332,5.1113 3.1347,2.4256 6.1322,4.0359 9.0137,5.5508 5.5986,2.9435 11.41,6.3952 10.998,5.9277 2.4184,2.1992 5.0171,6.9029 5.7852,11.645 0.7729,4.7715 -0.1891,8.9287 -1.8789,11.238 -1.4173,1.9286 -2.574,2.4683 -7.1836,2.7891 -4.6116,0.32092 -11.3,-0.59586 -18.326,-1.3106 a 14.491,14.491 0 0 0 -1.1289,-0.0703 c -0.052,-10e-4 -0.3831,0.008 -0.7266,0.0156 a 14.491,14.491 0 0 0 -0.6289,-5.5273 c -5.3604,-12.594 -5.6818,-24.922 -1.2578,-35.369 z m 16.613,56.049 c -0.2296,1.0703 -1.1253,5.2544 -1.125,5.2539 0,-3e-5 -0.077,0.12422 -0.082,0.13281 0.038,-0.17088 0.9656,-4.3088 1.207,-5.3867 z m -2.2695,7.127 c -0.7289,1.2441 -0.6045,1.0728 -0.8438,1.3301 0.2504,-0.31901 0.4718,-0.72695 0.8438,-1.3301 z"
         fill="#000000"
         stroke-width="0.82491"
         style="-inkscape-stroke:none"
         id="path4" />
      <path
         d="m 1884.3,-1379.4 c -77.906,0.075 -150.54,40.808 -185.08,115.04 -4.2887,9.2239 -12.244,21.399 0.9336,26.385 21.882,-44.279 79.094,-60.068 118.89,-28.219 15.837,12.669 22.547,28.021 29.709,46.381 23.197,-11.27 49.765,-10.648 72.92,0.1992 11.564,-53.204 68.59,-79.532 116.52,-51.976 14.338,8.2474 21.799,19.363 31.564,32.146 l 7.3594,-7.4278 c -23.482,-61.058 -73.883,-110.32 -138.43,-125.98 l -0.014,-0.016 c -18.137,-4.4013 -36.395,-6.5485 -54.373,-6.5312 z m -157.5,13.902 c -20.791,0.098 -41.059,20.311 -36.894,44.576 0.7077,4.0817 9.8952,24.351 15.146,20.721 6.5391,-9.3357 -1.7131,-16.597 -1.246,-25.848 0.8492,-16.793 13.657,-27.102 30.232,-24.771 8.068,1.1297 11.507,8.0073 19.207,-0.834 h -0.016 c -7.422,-9.7763 -16.979,-13.888 -26.43,-13.844 z m 314.58,0.2481 c -1.7742,0.039 -3.5753,0.2086 -5.3985,0.5176 v 0.014 c -6.0158,1.0168 -25.423,11.059 -15.697,16.426 6.0996,3.3615 7.5454,-0.706 12.938,-2.2598 19.406,-5.5929 34.508,11.921 31.096,31.059 -1.2588,7.1044 -6.8505,9.0662 -0.8633,17.074 4.118,5.4947 10.841,-5.3378 12.781,-9.4336 11.995,-25.251 -8.2427,-53.978 -34.855,-53.396 z m -40.906,100.52 c -2.7157,-0.078 -5.4889,0.029 -8.3125,0.3339 -47.955,5.1976 -70.657,63.359 -38.627,99.898 28.86,32.921 85.008,24.136 100.49,-16.978 v -0.014 c 14.808,-39.3 -12.818,-82.073 -53.555,-83.24 z m -226.68,0.033 c -3.0902,-0.1442 -6.2632,-0.051 -9.5098,0.3007 -43.41,4.7036 -67.501,54.843 -44.699,91.834 22.293,36.169 72.88,37.948 98.555,4.2774 29.497,-38.69 2.0071,-94.25 -44.346,-96.412 z m -92.68,39.451 c -0.2266,12.444 -27.034,38.432 -28.322,45.918 -0.1981,1.1425 0.014,2.3575 -0.014,3.502 l 12.738,3.5722 -15.568,26.879 c 1.9533,7.5837 11.365,-1.7676 15.455,5.7188 -1.3872,5.6782 -13.829,25.805 -10.602,30.295 2.8589,3.9559 11.763,-2.2444 16.42,0.5938 18.301,46.963 71.434,60.394 113.19,79.107 -5.3502,3.7422 -16.517,1.4278 -23.17,0.5371 -7.4444,-0.988 -14.875,-2.8391 -22.121,-4.7598 -13.235,-3.5019 -15.768,-10.565 -27.629,-0.7344 -31.535,26.129 -79.744,95.024 -48.209,134.36 1.1747,1.4553 -0.042,3.5603 3.6524,2.6562 -11.734,-27.569 -3.9357,-57.978 22.674,-73.004 1.8259,-7.5703 -3.3825,-33.151 0.2832,-36.836 5.2371,-2.9373 11.818,1.9203 16.701,0.5508 5.2794,-1.4687 14.098,-13.022 19.73,-14.363 3.7804,-0.8907 25.86,2.9937 31.664,3.8691 45.773,6.9352 90.726,20.041 126.45,50.408 43.326,-37.569 101.37,-47.611 156.68,-54.418 7.5722,0.5779 15.443,12.696 22.109,14.504 5.4627,1.482 11.735,-4.4484 16.307,0.5508 l -0.752,35.746 c 16.533,8.6155 29.908,27.755 29.795,46.836 -0.042,8.7281 -4.2466,17.597 -4.996,26.184 36.459,-48.67 -16.603,-112.86 -55.158,-142.62 -17.042,6.4259 -38.303,13.233 -56.701,12.768 -1.9396,-0.042 -7.4882,-0.2412 -7.7285,-2.8828 42.929,-16.581 95.002,-32.695 114.62,-78.428 5.3082,-3.2616 18.583,6.2137 16.432,-4.9863 l -0.027,-0.014 c -2.6608,-13.926 -24.332,-33.644 4.8105,-29.617 l -15.539,-28.883 c 0.7782,-3.6583 14.054,-1.2859 12.172,-7.9101 -0.8201,-2.8534 -12.002,-15.014 -14.748,-19.252 -5.4207,-8.3332 -9.3834,-17.639 -15.115,-25.803 -15.669,7.2174 -9.1441,21.962 -10.998,35.606 -10.05,74.108 -120.65,87.384 -149.33,15.564 -1.9951,-5.0278 -5.7586,-23.331 -7.4141,-25.084 -6.2714,-6.6223 -27.023,-10.889 -36.123,-10.678 -8.2245,0.1984 -27.458,4.7464 -32.609,11.272 -3.5115,4.4498 -6.0443,22.569 -10.248,30.732 -34.733,67.526 -139.52,48.997 -147.44,-28.527 -1.2457,-12.232 3.9903,-23.305 -11.324,-28.928 z m 356.03,217.69 c -10.773,-0.4253 -40.127,6.0982 -52.018,8.7266 -26.085,5.7621 -53.896,14.958 -76.033,30.055 -4.5433,3.1071 -21.924,18.786 -24.883,18.885 -4.6997,0.15449 -10.488,-8.2772 -14.211,-11.199 -19.985,-15.663 -41.726,-25.82 -66.113,-32.895 -12.426,-3.603 -65.307,-15.904 -74.748,-13.107 -0.8488,0.2537 -6.9194,3.8982 -7.0468,4.293 l 0.014,0.014 1.0059,3.5332 144.09,52.27 c 16.829,8.1768 30.644,1.1443 46.752,-4.2363 44.867,-14.999 88.39,-34.32 133.73,-48.062 2.0237,-2.1896 -7.9696,-8.1781 -10.531,-8.2754 z m -342.47,53.275 c -2.9231,-0.13325 -5.1866,0.88959 -4.709,4.9258 0.6935,5.9319 18.33,11.37 24.006,16.455 10.898,9.758 15.045,29.93 5.9726,42.301 -8.8575,12.058 -25.877,8.6163 -38.656,7.3164 -0.01,-1.4e-4 0,-6e-5 -0.01,0 -29.726,57.83 -43.185,107.86 -44.252,150.38 a 436.51,436.51 0 0 0 253.52,81.168 436.51,436.51 0 0 0 229.93,-65.465 c 9.1231,-46.448 1.0155,-101.79 -31.908,-165.44 l -1.9121,-1.9355 c -36.884,16.44 -58.044,-27.386 -28.93,-50.322 4.982,-3.9406 23.382,-9.6488 20.99,-16.908 -1.7681,-5.3673 -15.315,0.45209 -18.824,2.1191 -39.829,18.967 -36.135,81.664 13.275,77.496 l -4.1328,36.143 -176.49,66.807 -9.5546,1.4961 -182.49,-67.623 c -4.2179,-3.3894 -3.5092,-30.085 -5.25,-36.807 54.506,4.7589 53.302,-66.41 6.4532,-80.576 -2.093,-0.63002 -4.7656,-1.4334 -7.0391,-1.5371 z m -13.393,70.998 v -0.002 z"
         fill="#ffffff"
         stroke-width="0.82491"
         style="-inkscape-stroke:none"
         id="path5" />
      <g
         fill="#000000"
         stroke-width="1.9074"
         id="g8">
        <path
           transform="translate(547.97,-569.65)"
           d="m 1389.8,-513.17 c -15.398,10.071 -41.924,6.7368 -45.42,-13.516 -2.8725,-16.609 2.5768,-12.966 12.838,-20.409 19.928,-14.448 34.634,-38.531 0.9766,-47.06 -21.345,-5.4093 -79.092,-3.7575 -58.611,31.666 5.476,9.4624 28.038,21.82 28.618,23.699 7.9117,25.789 -24.91,40.013 -46.354,25.07 -4.8828,-3.4046 -8.2932,-9.8877 -11.831,-12.896 -2.9584,-2.5006 -6.2848,-1.6518 -8.7472,1.0738 -5.7888,6.3973 10.784,20.945 16.361,24.504 3.397,2.1744 14.975,6.5537 16.121,7.9232 1.5431,1.8215 3.4676,11.004 5.1804,14.605 15.032,31.651 56.645,33.953 73.658,3.2902 2.6169,-4.7302 4.8542,-14.689 7.5722,-17.866 2.2507,-2.6417 15.257,-7.5989 20.495,-12.034 3.849,-3.2616 13.29,-13.178 12.794,-18.36 -6.5804,-12.669 -16.8,5.8327 -23.665,10.338 z m -53.303,44.886 c -19.377,-0.0286 -23.1,-8.1215 -24.897,-26.158 l 19.688,-8.6003 c 1.8539,4.8447 0.6218,21.679 4.982,23.996 2.5063,1.3275 2.8877,-3.8853 3.1147,-5.312 0.9327,-6.0444 0.9327,-12.569 1.8254,-18.671 l 19.63,8.6575 c -1.3295,17.853 -5.1079,26.144 -24.359,26.1 z"
           clip-path="url(#clipPath15)"
           id="path6" />
        <path
           transform="translate(547.97,-569.65)"
           d="m 1425.8,-622.17 c -25.831,2.9087 -20.228,52.229 5.0659,51.51 28.408,-0.8049 22.873,-54.646 -5.0659,-51.51 z"
           clip-path="url(#clipPath14)"
           id="path7" />
        <path
           transform="translate(547.97,-569.65)"
           d="m 1243.2,-626.09 c -26.892,3.727 -25.095,53.105 0.8354,51.537 26.68,-1.6098 27.615,-55.477 -0.8354,-51.537 z"
           clip-path="url(#clipPath13)"
           id="path8" />
      </g>
    </g>
  </g>
</svg>
